<?xml version="1.0" encoding="UTF-8"?>
<!DOCTYPE svg PUBLIC "-//W3C//DTD SVG 1.1//EN" "http://www.w3.org/Graphics/SVG/1.1/DTD/svg11.dtd">
<!-- Creator: CorelDRAW X6 -->
<svg xmlns="http://www.w3.org/2000/svg" xml:space="preserve" width="5.98611in" height="5.98611in" version="1.1" style="shape-rendering:geometricPrecision; text-rendering:geometricPrecision; image-rendering:optimizeQuality; fill-rule:evenodd; clip-rule:evenodd"
viewBox="0 0 5986 5986"
 xmlns:xlink="http://www.w3.org/1999/xlink">
 <defs>
  <style type="text/css">
   <![CDATA[
    .fil0 {fill:#F79633;fill-rule:nonzero}
    .fil1 {fill:#FEFEFE;fill-rule:nonzero}
   ]]>
  </style>
 </defs>
 <g id="Layer_x0020_1">
  <metadata id="CorelCorpID_0Corel-Layer"/>
  <polygon class="fil0" points="0,5986 5998,5986 5998,-13 0,-13 "/>
  <path class="fil1" d="M2970 1226c100,5 200,9 299,14 -3,38 -7,76 -10,113 -95,-1 -199,-21 -293,-19 -7,50 -8,113 0,157 1,32 2,64 3,96 76,-1 151,1 218,12 26,4 83,-5 95,10 -5,38 -10,76 -15,113 -81,-7 -161,-14 -242,-20 -50,-2 -100,-5 -150,-7 -1,-188 -2,-375 -3,-563 -2,-60 -5,-120 -7,-179 -2,-16 -6,-45 -2,-56 115,-2 230,-3 345,-5 40,-4 89,7 123,-3 3,2 6,5 8,7 -9,38 -18,76 -27,113 -79,-7 -159,-14 -238,-20 -20,-3 -75,-15 -88,-3 -6,80 -11,160 -17,240z"/>
  <path class="fil1" d="M3299 1730c0,-31 15,-68 25,-95 20,-69 41,-139 61,-208 62,-181 91,-361 159,-536 44,6 88,12 132,19 -63,136 -130,254 -171,408 156,-91 312,-183 468,-274 38,24 77,48 115,73 -1,2 -2,3 -3,5 -34,17 -69,34 -103,51 -84,43 -165,73 -245,118 -42,24 -104,40 -137,74 1,38 22,82 27,120 13,90 37,172 66,257 11,34 21,68 32,101 1,0 1,0 2,0 1,-1 1,-2 2,-3 24,-34 49,-69 73,-103 81,-113 156,-230 233,-350 48,-75 110,-123 113,-243 2,0 5,0 7,0 35,22 70,44 105,66 -12,56 -24,113 -36,169 -19,77 -27,147 -46,223 -4,27 -8,53 -12,79 -20,66 -44,167 -46,244 39,-31 68,-90 96,-130 69,-97 146,-190 223,-279 29,-33 55,-75 90,-101 27,18 53,36 79,54 -65,73 -131,145 -196,218 -75,97 -159,185 -235,281 -35,44 -68,96 -110,134 -13,-8 -26,-16 -39,-24 16,-109 32,-218 47,-326 18,-96 14,-195 34,-286 3,-24 6,-47 8,-71 -1,-1 -2,-1 -3,-2 -1,1 -2,1 -3,2 -28,43 -56,87 -85,130 -30,50 -60,100 -90,151 -46,73 -95,146 -134,227 -2,0 -5,0 -7,0 -24,-19 -47,-37 -71,-56 9,32 18,63 27,95 -1,0 -2,0 -3,0 -32,7 -63,15 -95,22 -41,-144 -81,-289 -122,-433 -12,-63 -24,-125 -35,-188 0,1 0,2 0,3 -5,17 -9,35 -14,52 -12,70 -40,158 -58,223 -9,32 -14,106 -32,122 -25,-10 -65,-12 -96,-12z"/>
  <path class="fil1" d="M2755 893c9,20 14,87 5,107 -31,1 -159,26 -176,41 21,66 19,132 37,206 19,86 37,172 56,259 7,31 45,143 39,167 -33,10 -67,20 -100,30 0,-1 0,-2 0,-3 -23,-40 -24,-101 -39,-151 -43,-146 -64,-332 -101,-485 -3,0 -7,0 -10,0 -27,9 -148,45 -167,37 -5,-37 -9,-73 -14,-110 115,-16 232,-45 338,-71 44,-9 88,-18 132,-27z"/>
  <path class="fil1" d="M2153 1028c21,50 42,100 63,150 51,125 103,255 147,379 11,30 73,170 69,184 -18,3 -90,24 -98,14 -20,-50 -39,-99 -59,-149 -29,-72 -57,-144 -86,-216 -32,-71 -63,-142 -95,-213 -17,-39 -34,-78 -51,-117 1,-1 1,-2 2,-3 31,-1 84,-14 108,-29z"/>
  <path class="fil1" d="M1848 1136c28,17 90,148 112,184 94,156 174,330 255,495 -23,16 -46,33 -69,49 -2,-1 -5,-1 -7,-2 -65,-123 -130,-246 -194,-369 -2,1 -3,1 -5,2 -69,46 -139,91 -208,137 6,38 54,93 73,125 49,82 98,165 147,247 -20,16 -39,32 -59,47 -1,0 -2,0 -3,0 -30,-45 -60,-90 -90,-135 -53,-85 -108,-166 -164,-247 -46,-66 -89,-133 -135,-198 -20,-29 -41,-57 -61,-86 1,-1 1,-2 2,-3 32,-17 64,-35 96,-52 33,48 67,96 100,144 16,26 33,53 49,79 74,-42 148,-85 222,-127 -5,-26 -26,-50 -39,-71 -36,-60 -69,-120 -105,-178 1,-2 1,-3 2,-5 28,-12 55,-25 83,-37z"/>
  <path class="fil1" d="M4133 1246c0,1 0,2 0,3 0,-1 0,-2 0,-3z"/>
  <path class="fil1" d="M1334 1456c22,12 79,128 96,157 88,145 161,302 244,453 15,27 96,166 95,184 -112,-36 -224,-71 -337,-107 7,32 37,61 52,86 35,57 74,110 112,164 12,17 19,34 34,47 -1,1 -2,2 -3,3 -99,-9 -197,-18 -296,-27 -210,-20 -419,-41 -629,-61 -29,-1 -58,-2 -86,-3 8,-21 25,-75 44,-91 30,-10 186,20 223,27 190,34 387,44 587,63 -2,-2 -3,-5 -5,-7 -51,-80 -101,-160 -152,-240 -167,-49 -335,-98 -502,-147 16,-26 33,-53 49,-79 32,10 63,20 95,30 99,34 198,68 298,101 -51,-74 -101,-149 -152,-223 -28,-35 -55,-70 -83,-105 0,-1 0,-1 0,-2 26,-20 52,-41 78,-61 2,1 3,2 5,3 68,103 135,206 203,309 25,41 50,81 74,122 83,28 166,55 249,83 -20,-32 -39,-64 -59,-96 -68,-108 -124,-223 -193,-326 -40,-60 -77,-133 -129,-181 5,-6 10,-11 15,-17 25,-20 50,-41 74,-61z"/>
  <path class="fil1" d="M4735 1588c31,7 71,48 91,69 -36,46 -92,89 -140,123 -88,62 -167,140 -252,206 -40,31 -96,82 -129,120 -29,33 -59,65 -88,98 -2,0 -4,0 -7,0 -21,-28 -58,-55 -88,-74 39,-51 95,-100 145,-140 108,-87 208,-187 318,-274 50,-43 99,-86 149,-129z"/>
  <path class="fil1" d="M4835 1943c185,3 304,32 350,179 43,138 -46,252 -120,308 -19,14 -54,55 -81,51 -12,-41 -25,-82 -37,-123 24,-14 47,-28 71,-42 38,-24 125,-106 108,-174 -19,-78 -159,-107 -260,-88 -49,9 -98,18 -147,27 -96,32 -166,76 -237,130 -30,23 -66,47 -85,81 -51,95 -24,151 49,196 17,10 42,36 69,32 77,-35 153,-70 230,-105 -9,-77 -66,-133 -76,-205 30,-10 51,-32 85,-39 43,103 86,206 129,309 -122,49 -244,98 -365,147 -24,9 -106,47 -123,41 -15,-24 -30,-49 -46,-73 1,-2 1,-3 2,-5 26,-11 53,-23 79,-34 -1,-2 -2,-3 -3,-5 -103,-42 -168,-212 -95,-335 78,-130 212,-195 365,-250 28,-7 55,-14 83,-20 18,-3 39,3 56,-3z"/>
  <path class="fil1" d="M1678 2093c1,1 2,1 3,2 -1,-1 -2,-1 -3,-2z"/>
  <path class="fil1" d="M1608 2097c1,1 2,1 3,2 -1,-1 -2,-1 -3,-2z"/>
  <path class="fil1" d="M3912 2383c19,9 52,56 57,78 -20,13 -33,30 -49,46 -45,44 -97,86 -145,125 -43,41 -87,81 -130,122 -38,31 -70,68 -108,98 -19,15 -45,31 -57,52 10,30 52,58 73,79 53,56 106,113 159,169 -7,7 -14,15 -20,22 -14,12 -28,24 -42,36 -102,-107 -204,-214 -306,-321 0,-1 0,-2 0,-3 136,-93 250,-219 377,-321 39,-32 71,-72 110,-103 28,-26 55,-52 83,-78z"/>
  <path class="fil1" d="M2993 2504c-58,14 -132,29 -191,29 2,-58 6,-118 17,-178 4,-24 8,-47 12,-71 4,-28 8,-56 12,-85 0,-1 0,-2 0,-3 50,102 100,204 151,306 0,1 0,1 0,2zm-622 58c-18,58 -59,96 -95,142 -32,-6 -154,-119 -184,-145 -14,-12 -41,-22 -47,-41 -4,-1 -1,2 -5,-2 43,-52 74,-98 144,-122 20,-3 41,-7 61,-10 85,1 156,82 127,178zm1152 -431c-26,22 -74,148 -91,188 -53,123 -107,242 -156,374 -14,36 -28,71 -42,107 -1,1 -2,1 -3,2 -81,-173 -162,-339 -240,-511 -30,-66 -62,-134 -95,-201 -15,-31 -38,-68 -46,-105 -3,-1 -6,-1 -8,-2 -34,6 -68,12 -101,19 0,1 0,1 0,2 17,30 34,60 51,90 -35,215 -70,430 -105,644 -1,1 -2,1 -3,2 -95,-23 -189,-45 -284,-68 -4,-20 32,-53 41,-73 31,-75 52,-165 5,-240 -36,-58 -160,-94 -252,-58 -32,13 -74,31 -98,54 -17,21 -35,43 -52,64 -30,38 -84,75 -100,125 34,45 91,83 135,118 93,74 180,155 274,228 42,36 85,71 127,107 18,15 35,38 58,47 1,1 2,2 3,3 7,-7 62,-89 61,-93 -99,-75 -198,-150 -298,-225 -2,-2 -3,-4 -5,-7 160,48 319,96 479,144 6,-76 11,-152 17,-228 82,-18 161,-39 240,-54 45,90 90,179 135,269 37,8 73,17 110,25 17,-16 24,-43 36,-64 38,-68 71,-141 107,-213 70,-142 156,-273 222,-416 -17,-18 -90,-40 -118,-54z"/>
  <path class="fil1" d="M4928 2998c-4,-79 -13,-142 -14,-235 -172,-2 -324,46 -487,52 1,-31 1,-62 2,-93 103,0 216,-19 313,-37 176,-25 353,-51 529,-76 1,1 1,2 2,3 1,38 1,76 2,113 -81,23 -177,13 -264,29 -13,48 -13,201 2,245 87,1 175,1 262,2 0,33 0,65 0,98 -57,-7 -124,3 -186,-7 -47,-2 -94,-3 -140,-5 -82,-13 -179,-7 -269,-7 -85,1 -170,1 -255,2 7,-29 -6,-71 3,-83 1,-1 2,-2 3,-3 166,1 331,1 497,2z"/>
  <path class="fil1" d="M1801 2716c29,0 60,14 85,24 -5,47 -71,183 -59,220 47,12 94,24 140,36 94,26 199,41 287,71 78,27 167,27 237,64 0,1 0,1 0,2 -12,29 -25,59 -37,88 -74,0 -168,-39 -237,-59 -140,-38 -281,-77 -421,-115 -11,45 -23,90 -34,135 -39,-4 -79,-8 -118,-12 54,-148 103,-301 157,-453z"/>
  <path class="fil1" d="M3974 2863c8,14 -7,47 -9,66 -4,54 -20,120 -30,171 -30,-5 -212,-82 -227,-98 0,-1 0,-1 0,-2 18,-10 36,-20 54,-30 41,-22 83,-43 122,-64 25,-14 65,-22 90,-42z"/>
  <path class="fil1" d="M5170 3193c32,6 64,12 96,19 0,36 -9,74 -17,105 -17,69 -23,136 -35,196 -11,52 -9,134 -32,174 -31,-8 -62,-17 -93,-25 -15,-57 41,-137 27,-193 -164,-27 -328,-54 -492,-81 -75,-10 -150,-20 -225,-30 5,-38 9,-76 14,-113 59,8 118,16 178,24 71,10 142,19 213,29 78,22 169,28 247,47 28,7 54,19 86,25 11,-59 23,-117 34,-176z"/>
  <path class="fil1" d="M2023 3245c18,9 27,46 36,64 28,53 56,106 85,159 -93,-6 -186,-11 -279,-17 0,-1 0,-1 0,-2 53,-68 106,-136 159,-205z"/>
  <path class="fil1" d="M4463 3473c39,16 189,24 198,61 -10,34 -20,69 -30,103 -48,-18 -153,-78 -215,-63 -114,29 -88,160 -10,206 20,12 43,16 68,24 133,41 177,-53 260,-105 29,-18 61,-28 95,-41 31,-12 82,-23 125,-10 47,14 85,53 120,81 36,29 72,80 81,134 5,29 -6,56 -17,81 -33,78 -82,110 -169,132 -74,18 -149,-19 -196,-39 -14,-6 -46,-10 -51,-25 12,-29 24,-59 36,-88 55,30 211,93 289,44 18,-11 27,-32 41,-47 0,-84 -107,-186 -201,-154 -110,38 -201,171 -359,142 -120,-22 -202,-91 -240,-194 -15,-40 -31,-105 -2,-151 28,-43 84,-62 134,-83 10,-4 34,0 44,-8z"/>
  <path class="fil1" d="M2400 3800c-41,145 -208,278 -350,326 -117,40 -246,20 -318,-47 -46,-43 -54,-142 -19,-196 66,-102 193,-156 303,-211 37,-19 96,-13 134,-34 48,0 110,3 149,19 37,15 120,77 101,144zm71 -32c-12,-43 -32,-78 -52,-113 0,3 0,7 0,10 -12,-15 -25,-30 -37,-46 -54,-43 -131,-63 -211,-61 -13,14 -52,4 -74,8 -59,12 -108,10 -162,27 -46,18 -91,36 -137,54 -100,60 -226,242 -166,394 10,26 29,45 44,66 63,88 318,125 457,79 123,-41 268,-141 318,-255 18,-42 38,-104 22,-164z"/>
  <path class="fil1" d="M4086 3884c20,1 41,2 61,3 80,21 138,86 179,147 15,22 46,63 44,93 -32,7 -53,33 -88,37 -21,-62 -111,-166 -178,-184 -134,-36 -185,99 -123,194 13,21 39,31 61,44 106,62 252,55 377,100 111,40 169,110 178,255 -4,15 -8,30 -12,46 -37,120 -122,184 -274,142 -60,-16 -192,-141 -213,-196 32,-20 64,-40 96,-59 27,58 114,171 176,189 129,38 174,-102 122,-193 -67,-117 -271,-86 -409,-132 -43,-14 -107,-35 -137,-64 -49,-49 -95,-158 -63,-257 17,-32 34,-63 51,-95 21,-27 61,-52 96,-63 19,-3 37,-6 56,-8z"/>
  <path class="fil1" d="M2525 3979c27,18 53,36 79,54 0,2 0,5 0,7 -46,56 -91,112 -137,167 -67,74 -133,148 -200,222 -42,43 -83,87 -125,130 -11,11 -26,19 -32,34 -33,-7 -77,-44 -101,-64 43,-42 87,-83 130,-125 83,-83 164,-169 240,-259 47,-55 105,-105 145,-166z"/>
  <path class="fil1" d="M4515 4055c23,11 38,32 58,47 38,30 77,60 115,90 18,13 49,26 59,46 -1,0 -2,0 -3,0 -21,8 -195,36 -213,32 -4,-50 -8,-100 -12,-151 -3,-19 -8,-45 -3,-64z"/>
  <path class="fil1" d="M3727 4099c18,7 53,167 61,200 48,195 108,384 154,577 1,1 2,1 3,2 55,-16 109,-33 164,-49 18,-7 52,-25 69,-19 2,29 3,59 5,88 -64,4 -132,33 -189,51 -60,17 -120,34 -179,51 -27,11 -76,35 -108,37 -5,-29 -9,-58 -14,-86 50,-15 100,-30 151,-46 -7,-79 -35,-161 -56,-233 -14,-58 -28,-116 -42,-174 -39,-118 -74,-236 -117,-350 33,-16 65,-32 98,-47z"/>
  <path class="fil1" d="M3110 5124c-24,1 -114,12 -127,3 2,-67 3,-133 5,-200 -7,-185 40,-517 157,-663 26,-32 73,-56 120,-66 87,-19 161,64 201,120 42,58 81,142 98,213 7,30 8,109 24,134 5,8 9,107 14,128 13,91 26,183 39,274 -38,3 -87,28 -122,20 -8,-104 -24,-228 -47,-340 -28,-136 -22,-236 -81,-347 -22,-41 -65,-143 -139,-120 -96,30 -114,145 -130,254 -31,203 -13,372 -12,588z"/>
  <path class="fil1" d="M2701 4809c-21,50 -42,99 -63,149 -23,-7 -45,-38 -59,-56 -90,-112 -126,-266 -51,-409 41,-78 162,-178 255,-203 40,-6 80,-11 120,-17 2,1 5,1 7,2 -55,188 -141,357 -210,534zm225 -626c-19,2 -37,4 -56,7 -35,7 -70,15 -105,22 -114,39 -255,124 -325,206 -23,28 -45,64 -59,100 -106,275 130,464 316,546 10,-24 20,-49 30,-73 28,-61 50,-125 76,-189 78,-203 157,-406 235,-609 0,-2 0,-3 0,-5 -38,-2 -76,-3 -113,-5z"/>
 </g>
</svg>
